<svg preserveAspectRatio="none" overflow="visible" style="display: block;" width="1816.26" height="1401.69" viewBox="0 0 1816.26 1401.69" fill="none" xmlns="http://www.w3.org/2000/svg">
<g id="About bg">
<path id="Rectangle 5" d="M22.2571 283.687L71.7571 254.687H212.757L288.757 298.187L408.257 328.187L516.757 415.187L625.257 385.187L743.757 400.187L854.757 358.187L947.257 283.687L1408.76 144.687L1486.26 68.6873L1746.26 9.18726V283.687V1400.69H22.2571V283.687Z" fill="#FFC000"/>
<g id="Vector">
<path d="M1742.88 0.600747C1733.64 2.24867 1724.58 4.65847 1715.65 6.93643C1686.01 14.7604 1656.87 22.8057 1627.79 32.3383L1620.55 34.8461L1613.3 37.5602L1606.14 40.6017C1605.17 41.0137 1604.23 41.4554 1603.14 41.8038L1601.55 42.3648L1599.9 42.8678C1577.62 49.299 1553.17 50.425 1529.9 52.8507C1494.15 57.4794 1460.4 75.0779 1439.24 100.86C1436.72 103.985 1434.27 107.156 1431.81 110.34C1424.75 120.043 1417.42 129.504 1409.78 138.658C1387.25 165.847 1339.43 155.512 1307.87 168.447C1304.34 170.971 1300.8 173.495 1295.79 174C1262.01 177.412 1233.38 194.384 1199.92 201.013C1192.42 201.771 1183.55 201.584 1176.15 203.414C1152.92 211.176 1130.61 215.596 1107.27 222.286C1086.32 227.651 1066.3 229.673 1045.03 231.821C1042.52 232.074 1040.35 235.544 1037.84 235.796C1035.34 236.049 1033.87 234.031 1031.15 232.139C1030.12 234.41 1029.19 237.753 1026.8 239.078C991.376 251.321 971.018 275.04 942.719 295.228C936.787 299.077 930.531 299.709 925.958 304.503C916.922 315.164 904.349 328.349 896.24 335.667C874.414 357.368 839.594 363.051 811.078 381.095C798.072 389.99 780.553 391.76 763.143 394.601C760.749 395.926 759.714 398.197 757.32 399.522C740.235 405.58 722.716 407.349 704.873 405.902C668.97 400.863 634.703 386.993 598.631 392.803C576.216 396.15 554.992 411.291 532.468 413.566C526.211 414.198 515.551 408.776 509.896 402.848C508.428 400.83 509.355 397.487 509.355 397.487C495.049 393.516 493.857 381.722 484.449 376.173C442.409 347.924 404.508 310.593 347.225 306.63C344.722 306.883 343.038 302.72 341.786 302.847C313.114 306.825 285.537 296.613 264 283.624C245.182 272.527 230.611 253.419 208.906 251.278C141.923 245.403 76.3583 253.693 14.2881 274.682C15.9159 279.034 17.3057 282.782 17.3057 282.782C25.7247 277.903 35.269 274.653 44.8543 272.06C63.4985 267.545 82.8381 262.906 101.936 261.757C104.054 261.705 106.178 261.707 107.777 261.893L111.846 262.251C138.565 263.971 165.551 260.693 192.036 261.095C196.86 261.171 201.675 261.291 206.314 261.657L208.058 261.784C208.606 261.826 209.304 261.853 209.64 261.927C210.869 262.074 212.169 262.311 213.4 262.609C222.94 265.198 230.677 271.089 238.175 276.993C245.079 282.524 251.749 288.739 259.645 294.949C266.899 300.564 276.412 307.142 287.725 307.765C288.587 307.786 290.232 307.804 291.103 307.792C296.528 307.688 301.769 308.134 307.478 308.846C323.912 310.977 340.131 314.614 355.689 319.347C357.834 320.062 360.051 320.737 362.101 321.505L365.198 322.632L368.112 323.822C369.124 324.207 369.951 324.633 370.814 325.044L372.101 325.65L373.596 326.431C405.894 343.965 438.633 361.975 469.085 381.754L469.41 381.97L469.604 382.135L470.002 382.452L470.81 383.064C470.965 383.221 470.839 383.104 470.996 383.283C472.495 385.103 473.613 386.788 475.042 389.168C480.012 397.201 484.808 405.891 492.217 413.418C501.414 423.245 515.912 430.619 531.312 430.028C536.607 429.893 542.014 428.86 547.092 427.567C568.904 421.627 587.939 411.343 607.943 404.524C613.953 402.574 619.32 400.776 624.955 400.618C625.171 400.629 625.507 400.573 625.638 400.625C625.755 400.657 625.908 400.663 626.035 400.672C625.996 400.665 625.945 400.659 625.918 400.64C625.865 400.613 625.824 400.585 625.782 400.546C625.7 400.489 625.875 400.59 626.036 400.682C626.188 400.689 626.316 400.697 626.307 400.742C626.332 400.739 626.346 400.749 626.371 400.746C626.421 400.741 626.408 400.742 626.371 400.746C626.309 400.763 626.258 400.757 626.216 400.718C626.201 400.687 626.125 400.684 626.048 400.681C626.102 400.708 626.142 400.737 626.182 400.754L629.057 402.305C655.841 415.057 700.453 421.967 731.423 422.338C744.639 422.281 760.063 421.547 771.93 414.64C773.541 413.698 774.808 412.974 776.478 412.112C786.272 407.202 799.792 402.392 810.237 398.423C829.998 390.947 849.107 384.153 868.15 373.825C873.29 371.02 878.541 367.696 883.091 364.182C923.414 332.001 959.216 294.115 1003.84 266.819C1010.29 263.221 1015.97 260.037 1023.05 258.531C1033.34 257.026 1044.15 254.861 1054.27 252.616C1123.55 237.073 1191.43 217.88 1259.44 198.793C1297.05 188.301 1338.35 176.829 1375.55 165.62C1386.68 162.253 1398.49 158.613 1409.36 154.634C1411.14 153.869 1413.47 152.984 1415.2 152.127C1419.76 149.738 1423.81 145.755 1426.99 142.325C1435.21 133.317 1442.13 123.466 1448.74 113.873C1451.2 110.31 1453.85 106.837 1456.67 103.519C1477.08 79.7838 1508.73 65.1381 1542.5 62.5723C1563.62 60.2006 1585 58.0956 1605.49 52.1491C1609.55 50.8289 1613.8 48.9914 1618.04 47.328C1641.24 39.169 1665.58 33.7749 1690.06 29.1692C1707.88 26.0476 1725.84 22.9562 1743.9 22.4747C1744.19 22.4671 1744.47 22.4607 1744.66 22.4847L1747.22 22.6702L1747.86 0L1742.86 0.64617L1742.88 0.600747Z" fill="#19150A"/>
<path d="M208.918 251.277C230.624 253.417 245.195 272.525 264.013 283.623C285.55 296.612 313.127 306.824 341.799 302.845C343.05 302.719 344.735 306.881 347.237 306.629C404.521 310.591 442.422 347.923 484.461 376.172C493.87 381.72 495.061 393.515 509.367 397.486C509.367 397.486 508.441 400.829 509.909 402.847C515.564 408.774 526.224 414.197 532.48 413.565C555.004 411.29 576.228 396.149 598.644 392.802C634.715 386.992 668.982 400.862 704.885 405.901C722.729 407.348 740.247 405.579 757.332 399.521C759.727 398.196 760.761 395.925 763.156 394.6C780.566 391.758 798.084 389.989 811.091 381.093C839.606 363.049 874.426 357.366 896.252 335.665C904.362 328.347 916.935 315.163 925.971 304.502C930.543 299.708 936.8 299.076 942.731 295.227C971.03 275.039 991.388 251.32 1026.81 239.077C1029.2 237.752 1030.13 234.409 1031.17 232.138C1033.88 234.03 1035.35 236.048 1037.86 235.795C1040.36 235.542 1042.54 232.073 1045.04 231.82C1066.31 229.672 1086.33 227.65 1107.28 222.285C1130.62 215.594 1152.93 211.175 1176.16 203.413C1183.56 201.582 1192.43 201.77 1199.94 201.012C1233.4 194.383 1262.02 177.411 1295.81 173.999C1300.81 173.493 1304.35 170.97 1307.89 168.446C1339.45 155.51 1387.26 165.845 1409.8 138.657C1417.43 129.502 1424.77 120.042 1431.83 110.339C1424.71 119.561 1417.52 128.778 1408.46 136.441L1407.41 137.208C1407.02 137.432 1406.57 137.737 1406.17 137.908C1406.13 137.933 1406.12 137.945 1405.98 137.992L1404.57 138.481C1397.79 140.844 1391.17 142.52 1384.1 144.404C1287.83 168.262 1172.36 192.684 1075.5 213.547C1061.28 216.445 1046.24 219.546 1031.91 221.968C1025.48 223.18 1018.51 223.765 1012.19 224.989C1007.99 225.976 1003.75 227.292 999.782 228.798C983.33 235.366 968.757 244.897 955.315 254.486C938.834 266.397 923.668 278.826 908.966 291.456C891.116 306.592 873.785 322.857 855.673 337.392C853.617 339.061 851.072 340.651 848.791 342.094C821.096 357.748 787.055 366.775 757.946 380.937C755.136 382.282 752.298 383.966 749.655 385.587C749.693 385.583 749.741 385.557 749.766 385.554C749.791 385.551 749.814 385.528 749.776 385.531C749.776 385.531 749.851 385.524 749.766 385.554C749.741 385.557 749.705 385.582 749.656 385.598C749.597 385.636 749.525 385.676 749.453 385.716C749.275 385.831 749.026 385.986 749.155 385.886C749.282 385.776 749.425 385.686 749.582 385.616C749.595 385.615 749.607 385.613 749.62 385.612C749.448 385.662 749.19 385.742 749.008 385.815C727.217 390.463 685.952 384.146 664.583 378.582C658.892 377.055 653.977 375.569 649.143 373.393C645.87 371.655 642.281 370.035 638.585 369.108C624.076 365.386 607.731 369.885 594.558 374.747C573.6 382.268 555.232 393.395 534.814 399.118L533.65 399.366L533.07 399.5C532.224 399.64 531.425 399.731 530.587 399.827C528.841 399.808 527.11 399.441 525.467 398.697C519.314 395.723 515.545 390.948 511.554 385.469C507.324 379.636 503.324 372.447 498.129 366.44C496.086 363.982 493.124 361.693 490.341 359.796C482.404 354.673 474.047 350.037 465.783 345.434C440.197 331.402 414.943 318.031 388.578 305.053C386.163 303.921 383.335 302.582 380.856 301.695C363.844 295.333 345.547 291.516 327.302 288.604C315.075 286.817 303.074 285.386 290.328 285.969C288.927 285.991 288.255 285.724 286.216 284.933C274.761 279.158 265.439 269.712 254.574 261.635C244.627 254.137 233.554 246.752 220.106 243.648C216.357 242.824 212.509 242.401 208.617 242.285C183.018 241.144 157.317 244 131.969 244.848C124.673 245.076 117.878 245.134 110.799 244.506L108.33 244.333C100.627 244.039 92.5672 245.091 85.2746 246.228C69.8868 248.692 54.8509 252.388 39.9281 256.202C29.8353 258.651 19.913 260.661 9.35693 261.402C9.35693 261.402 12.0594 268.635 14.3142 274.69C76.398 253.71 141.949 245.411 208.932 251.286L208.918 251.277Z" fill="#4C422B"/>
</g>
<g id="Vector_2" opacity="0.3">
<path d="M1760.54 1401.01L1760.16 1399.88C1752.65 1377.39 1754.29 1352.85 1764.79 1331.57L1782.99 1294.62C1787.25 1286.02 1790.08 1276.79 1791.4 1267.33L1815.39 1095.67C1817.7 1079.03 1815.39 1062.07 1808.52 1046.69C1805.86 1040.71 1803.7 1035.58 1803.7 1034.42C1803.7 1032.43 1807.61 1011.77 1810.33 997.555C1812.02 988.629 1812.37 979.513 1811.38 970.478L1793.63 813.464C1790.32 784.149 1772.87 758.34 1746.91 744.397L1633.68 683.581L1495.65 543.882C1492.31 572.307 1489.43 587.329 1488.52 615.431C1490.24 622.308 1491.64 629.266 1492.8 636.251C1495.33 650.706 1502.19 685.982 1504.99 700.896C1505.26 702.271 1505.13 703.646 1504.7 704.887L1467.81 812.952C1467.3 814.435 1466.41 815.649 1465.28 816.566L1266.01 973.769C1264.07 975.36 1200.15 888.439 1200.15 888.439L1103.61 807.235C1102.97 806.453 1102.48 801.517 1102.19 800.627L1084.17 747.498C1084.17 747.498 1081.51 659.147 1089.26 625.22C1087.27 621.175 1072.97 592.372 1072.97 592.372C1070.3 582.987 1068.15 586.358 1064.54 572.307L1054.93 588.165L936.099 735.874L838.352 810.687C820.391 824.414 809.243 845.261 807.735 867.861L796.345 1038.95C796.022 1044.1 796.587 1049.31 798.068 1054.24L846.026 1214.98L861.132 1337.99C862.667 1350.2 861.644 1362.64 858.144 1374.48L850.712 1399.83C962.945 1401.12 1075.42 1401.61 1187.95 1401.69C1187.9 1383.94 1184.72 1366.44 1176.45 1350.26C1147.75 1296.67 1116.59 1243.97 1091.47 1188.33C1079.7 1162.44 1068.88 1136.04 1059.94 1108.8C1057.27 1102.14 1056.17 1094.97 1054.9 1087.9C1050.94 1066.95 1056.98 1045.13 1057.62 1023.77C1060.53 1037.31 1064.38 1051.52 1068.85 1064.55C1072.81 1077.95 1079.16 1090.57 1083.04 1103.92C1100.33 1157.13 1125.13 1207.7 1151.41 1257.08C1167.67 1288.42 1186.77 1318.73 1202.03 1350.85C1209.06 1367.38 1211.7 1384.48 1211.67 1401.69C1273.69 1401.69 1335.7 1401.63 1397.69 1401.5V1296.05L1398.17 1294.75C1418.64 1238.77 1439.29 1182.56 1458.28 1126.14C1460.78 1118.38 1463.45 1110.74 1465.22 1103.17C1465.22 1103.17 1465.28 1103.17 1465.28 1103.09L1465.22 1101.82C1464.79 1089.47 1462.1 1053.33 1461.35 1040.71C1459.6 1010.88 1456.09 981.158 1457.25 951.115C1461.67 929.647 1467.75 908.423 1473.09 887.117C1471.71 908.638 1482.32 930.133 1480.52 951.627C1487.68 987.307 1488.54 1043.24 1492.1 1084.42C1492.37 1089.84 1492.99 1097.83 1493.07 1103.11C1493.01 1105.08 1492.5 1107.29 1492.02 1109.18C1481.35 1145.45 1468.08 1180.41 1455.64 1215.9C1445.67 1243.59 1435.6 1271.24 1425.45 1298.88V1401.47C1522.47 1401.28 1619.41 1401.04 1716.08 1401.04C1730.86 1401.04 1745.67 1401.04 1760.46 1401.01H1760.54Z" fill="#CC9A00"/>
<path d="M1298.89 641.725V626.758C1298.89 626.758 1296.85 622.928 1286.29 614.729C1272.8 608.553 1272.5 612.68 1260.49 624.708C1268.71 624.411 1275.44 629.104 1282.79 636.736C1291.89 637.329 1298.92 641.725 1298.92 641.725H1298.89Z" fill="#CC9A00"/>
<path d="M1349.33 694.396C1346.39 692.238 1328.4 689.703 1288.15 686.359C1252.77 698.9 1220.91 727.487 1220.91 727.487C1220.91 727.487 1277.03 701.839 1283.87 700.275C1290.71 698.711 1340.55 704.186 1345.45 703.808C1350.32 703.404 1372.43 719.288 1386.11 729.645C1374.37 713.787 1352.29 696.554 1349.35 694.396H1349.33Z" fill="#CC9A00"/>
<path d="M1351.67 623.818C1351.67 623.818 1347.58 615.889 1338.18 611.871C1328.81 607.852 1312.68 626.812 1312.68 626.812V641.752C1320 638.813 1321.78 639.406 1332.17 635.873C1338.18 627.648 1351.67 623.845 1351.67 623.845V623.818Z" fill="#CC9A00"/>
<path d="M1465.33 617.642C1468.56 587.059 1472.95 554.75 1477.42 523.007L1475.97 521.497L1461.64 439.43L1423.78 356.312C1417.18 341.829 1405.36 330.34 1390.69 324.218L1297.92 285.41C1291.94 282.902 1285.19 283.144 1279.4 286.057L1184.8 333.873C1179.66 336.489 1175.48 340.697 1172.95 345.902L1073.97 549.221C1079.97 564.81 1086.14 580.829 1088.78 588.057L1109.62 621.283C1110.43 622.577 1110.56 624.007 1110.35 625.409C1108.08 651.758 1099.93 721.122 1100.54 723.091C1100.54 723.091 1121.28 784.203 1124.64 794.182C1126.34 796.177 1211.49 870.855 1215.04 874.927L1269.59 946.017C1286.16 932.803 1442.31 808.394 1445.65 805.724L1481.11 701.759C1476.59 676.489 1469.13 642.103 1465.3 617.642H1465.33ZM1381.16 784.5C1394.78 723.172 1303.25 712.6 1284.97 716.619C1266.69 720.637 1271.91 720.286 1238.2 735.847C1248.46 731.452 1263.56 729.24 1273.69 728.215C1232.19 756.398 1224.57 781.506 1224.57 781.506L1204.65 742.455L1214.61 673.873L1245.55 645.096L1261.52 657.125L1242.02 628.942L1256.67 601.326L1278.51 593.262L1303.87 609.12L1306.65 618.802L1309.29 608.365L1335.54 593.235L1357.24 602.62L1370.3 624.061C1370.3 624.061 1371.33 625.517 1370.01 629.778C1365.91 633.877 1357.7 646.229 1348.3 663.84C1355.33 651.704 1365.89 645.825 1365.89 645.825L1394.03 676.893L1401.84 755.049L1381.1 784.419L1381.16 784.5ZM1373.67 595.123C1372.7 594.826 1343.67 581.423 1343.67 581.423L1352.85 590.538L1305.97 573.898L1258.53 590.241L1266.55 582.42C1266.55 582.42 1252.28 589.756 1237.63 595.15C1221.61 591.617 1212.62 584.578 1204.65 576.838C1204.51 567.048 1207.34 556.287 1207.34 556.287C1210.35 562.706 1213.48 567.992 1216.82 571.174C1216.82 571.174 1216.52 567.075 1216.63 557.069C1228.64 579.777 1252.98 573.817 1252.98 573.817C1252.98 573.817 1231.2 588.596 1231.2 588.893C1231.2 589.19 1306.3 562.167 1306.3 562.167C1334.89 575.301 1363.06 587.949 1379.67 587.922C1379.67 587.922 1372.54 582.447 1361.09 574.815C1384.17 577.755 1393.25 563.164 1395.8 559.254C1396.1 560.71 1395.8 567.668 1395.32 572.658C1400 569.232 1405.77 555.532 1405.77 555.532C1405.77 555.532 1407.33 562.005 1407.92 575.759C1396.18 588.327 1374.69 595.473 1373.72 595.204L1373.67 595.123ZM1424.78 550.084C1416.19 541.266 1401.7 526.406 1393.7 528.347C1385.68 530.316 1307.29 550.084 1307.29 550.084C1307.29 550.084 1219.51 527.188 1216.39 528.347C1213.26 529.534 1204.08 534.227 1186.47 550.084C1186.01 550.489 1187.44 519.528 1187.44 519.528L1223.79 493.099L1275.01 515.996H1337.75L1390.71 492.317L1424.72 517.56C1424.72 517.56 1427.85 529.318 1424.72 550.057L1424.78 550.084Z" fill="#CC9A00"/>
</g>
</g>
</svg>
